# xmcd
# 
# Track frame offsets:
#     150
#     22980
#     54620
#     68612
#     88837
#     106365
#     124952
#     145590
#     159390
#     169395
#     187857
#     197905
#     231507
#     246485
# 
# Disc length: 3529
# 
# Revision: 1
# Processed by: cddbd v1.5.2PL0 Copyright (c) Steve Scherf et al.
# Submitted via: BonkEnc v1.0.8
# 
DISCID=c50dc70e
DTITLE=菊地雅章, Greg Osby - Beyond All
DYEAR=2005
DGENRE=Contemporary Jazz
TTITLE0=Vista
TTITLE1=Sepia Tones
TTITLE2=Fixation [alto sax]
TTITLE3=Broken Parade
TTITLE4=Journey From Here
TTITLE5=Dance Of An Elephant (And A Buzzing Bee)
TTITLE6=Anthem For Two
TTITLE7=Counteration [soprano solo]
TTITLE8=Counter-Counteraction (Piano Solo)
TTITLE9='Round Midnight
TTITLE10=Infinity
TTITLE11=Phantomine
TTITLE12=Swing Spring
TTITLE13=Bye-Bye Song [piano solo]
EXTD=YEAR: 2005
EXTT0=
EXTT1=
EXTT2=
EXTT3=
EXTT4=
EXTT5=
EXTT6=
EXTT7=
EXTT8=
EXTT9=
EXTT10=
EXTT11=
EXTT12=
EXTT13=
PLAYORDER=
